<?xml version="1.0" standalone="no"?>
<!DOCTYPE svg PUBLIC "-//W3C//DTD SVG 20010904//EN"
 "http://www.w3.org/TR/2001/REC-SVG-20010904/DTD/svg10.dtd">
<svg version="1.0" xmlns="http://www.w3.org/2000/svg"
 width="350.000000pt" height="180.000000pt" viewBox="0 0 350.000000 180.000000"
 preserveAspectRatio="xMidYMid meet">

<g transform="translate(0.000000,180.000000) scale(0.100000,-0.100000)"
fill="#000000" stroke="none">
<path d="M1033 1384 c-8 -22 3 -126 37 -348 16 -105 32 -218 35 -251 l6 -60
-43 -24 c-70 -38 -168 -105 -243 -165 -117 -93 -165 -96 -165 -9 0 49 47 179
85 235 35 52 110 86 220 99 50 6 91 12 92 13 1 0 4 13 8 28 7 26 6 26 -52 32
-32 4 -115 20 -184 36 -69 17 -134 30 -145 30 -32 0 -66 -29 -62 -53 3 -20 11
-23 87 -29 124 -10 128 -26 17 -67 l-60 -22 -46 50 c-26 28 -52 51 -58 51 -37
0 -82 -101 -82 -186 0 -49 -2 -53 -28 -59 -16 -3 -86 -46 -156 -95 -71 -50
-136 -90 -146 -90 -55 0 -51 77 11 180 36 61 41 75 31 91 -17 26 -15 38 9 84
17 31 18 36 5 26 -40 -33 -59 -73 -61 -129 -2 -43 -11 -74 -39 -125 -45 -85
-48 -136 -10 -174 36 -35 78 -27 160 34 204 150 249 170 308 135 33 -19 35
-19 50 -3 26 29 19 46 -38 84 -59 39 -73 64 -56 97 18 34 57 36 89 6 19 -18
38 -26 63 -26 20 0 39 -4 43 -9 3 -5 -10 -38 -30 -73 -40 -75 -70 -192 -61
-243 4 -19 17 -41 29 -50 45 -31 91 -15 197 70 98 79 200 146 211 139 6 -3 7
-24 3 -49 -8 -57 9 -108 48 -140 37 -31 72 -29 147 10 43 22 73 44 281 203 45
35 84 61 87 59 2 -3 -5 -32 -17 -66 -20 -61 -28 -194 -12 -217 12 -20 51 -26
87 -14 18 6 78 47 132 90 54 44 123 93 153 109 123 66 139 122 104 361 -8 58
-18 157 -23 221 -7 115 -29 187 -59 197 -19 6 -15 -53 23 -316 45 -310 45
-324 3 -355 -55 -41 -129 -74 -100 -45 20 20 14 24 -28 20 -47 -5 -53 12 -19
57 12 16 18 34 15 40 -10 16 -42 13 -61 -6 -16 -16 -16 -17 0 -29 13 -10 14
-17 6 -33 -17 -32 -13 -62 9 -68 30 -8 25 -22 -29 -74 -128 -123 -201 -136
-201 -36 0 37 50 167 64 167 3 0 21 -10 41 -21 20 -12 37 -20 39 -18 2 2 7 29
12 59 l9 55 84 42 c87 44 131 77 131 99 0 33 -361 90 -408 65 -12 -6 -29 -25
-37 -41 -18 -35 -13 -50 39 -99 20 -19 36 -40 36 -45 0 -15 -297 -243 -368
-283 -63 -36 -106 -41 -140 -17 -28 19 -29 66 -2 152 30 97 34 181 15 322 -10
69 -20 175 -24 235 -6 84 -12 120 -29 153 -25 46 -30 50 -39 26z m682 -475
c42 -6 86 -14 98 -18 20 -7 16 -11 -30 -35 -69 -34 -91 -33 -146 10 -74 57
-63 63 78 43z"/>
<path d="M1178 1370 c-2 -16 -1 -55 3 -87 8 -67 76 -516 88 -583 l8 -45 11 28
c18 42 15 103 -13 292 -14 94 -26 201 -27 238 -1 52 -8 82 -29 128 -16 32 -30
59 -32 59 -3 0 -7 -13 -9 -30z"/>
<path d="M2686 1384 c-11 -29 -6 -81 24 -260 16 -97 38 -243 47 -325 14 -117
20 -146 30 -137 19 16 16 160 -7 318 -11 74 -23 178 -27 230 -8 119 -48 223
-67 174z"/>
<path d="M2110 1368 c0 -13 16 -124 35 -248 19 -124 40 -272 46 -330 13 -127
16 -140 29 -120 22 34 1 317 -35 488 -19 90 -19 100 0 104 12 2 11 10 -6 48
-33 73 -69 103 -69 58z"/>
<path d="M2390 1357 c0 -7 9 -39 20 -71 22 -62 32 -213 15 -218 -5 -2 -11 10
-13 25 -4 30 -19 32 -36 4 -7 -11 -6 -26 7 -52 17 -36 18 -36 65 -29 26 3 51
10 55 14 13 11 11 100 -2 113 -8 8 -11 1 -11 -26 0 -20 -4 -37 -10 -37 -13 0
-27 60 -35 150 -4 41 -13 90 -22 108 -15 32 -33 43 -33 19z"/>
<path d="M1588 1354 c-25 -8 -22 -41 4 -50 21 -6 21 -7 -5 -22 -24 -15 -36
-32 -22 -32 31 0 136 82 123 96 -9 8 -80 14 -100 8z"/>
<path d="M1820 1272 c-103 -43 -188 -92 -241 -140 -54 -48 -65 -74 -20 -45 93
59 158 94 253 137 59 27 113 55 119 62 20 24 -39 16 -111 -14z"/>
<path d="M870 1251 c-31 -10 -84 -33 -119 -51 -66 -36 -160 -113 -150 -124 3
-4 45 18 93 48 48 30 119 67 159 81 40 15 82 31 95 36 25 10 21 29 -6 28 -9 0
-42 -8 -72 -18z"/>
<path d="M1370 1248 c0 -7 12 -38 26 -68 21 -45 25 -65 21 -109 -5 -47 -4 -54
14 -58 28 -8 18 -27 -15 -31 -19 -2 -26 -8 -24 -20 5 -24 58 -29 75 -6 18 25
16 79 -3 99 -9 9 -20 44 -24 82 -8 63 -31 112 -58 121 -7 2 -12 -2 -12 -10z"/>
<path d="M3133 1238 c-6 -7 -13 -26 -17 -41 -7 -28 -8 -28 -29 -13 -35 26 -48
29 -59 18 -17 -17 -1 -62 22 -62 10 0 26 -10 34 -22 l15 -21 11 27 c5 15 10
31 10 36 0 5 11 21 25 36 14 15 24 32 22 38 -5 16 -23 18 -34 4z"/>
<path d="M501 1216 c-12 -14 -1 -29 28 -38 9 -3 2 -12 -20 -26 -41 -26 -19
-28 36 -3 80 36 87 81 12 81 -26 0 -49 -6 -56 -14z"/>
<path d="M2304 1205 c-31 -31 -63 -101 -64 -137 0 -33 33 -56 55 -38 20 16 25
48 9 61 -22 18 -17 58 11 91 41 48 32 66 -11 23z"/>
<path d="M2907 1192 c-26 -28 -69 -130 -65 -153 5 -35 33 -47 57 -25 25 22 27
54 6 62 -20 8 -19 30 5 83 23 49 21 60 -3 33z"/>
<path d="M920 1163 c1 -16 2 -34 1 -41 -2 -23 -18 -4 -24 28 -10 47 -27 35
-27 -17 -1 -44 -2 -47 -15 -29 -8 11 -15 28 -15 38 0 25 -27 23 -35 -2 -8 -25
11 -86 29 -93 18 -7 99 13 108 27 9 13 10 63 2 94 -9 31 -26 28 -24 -5z"/>
<path d="M2592 1174 c-27 -19 -29 -44 -2 -44 28 0 25 -12 -7 -33 l-28 -18 35
7 c84 15 130 73 75 94 -36 14 -47 13 -73 -6z"/>
<path d="M1866 1136 l-8 -40 -21 35 -22 34 -5 -39 c-6 -46 -27 -60 -32 -21 -4
37 -22 36 -26 -2 -6 -66 26 -87 97 -62 44 15 53 37 38 90 l-13 44 -8 -39z"/>
<path d="M3287 1084 c-15 -15 -6 -62 30 -166 28 -82 34 -111 26 -119 -9 -9
-19 -5 -41 19 l-29 31 -30 -36 c-31 -40 -63 -41 -63 -3 0 26 -12 25 -48 -5
-47 -39 -87 -34 -134 17 -32 35 -42 40 -56 32 -24 -15 -71 -104 -72 -135 0
-15 -9 -38 -20 -51 -25 -33 -300 -218 -322 -218 -10 0 -25 11 -34 25 -22 33
-11 77 31 121 29 31 36 34 55 24 36 -19 72 -8 97 29 28 42 29 81 2 157 -11 32
-20 76 -21 96 0 28 -8 44 -35 70 l-36 33 6 -55 c3 -31 21 -98 41 -149 20 -51
36 -97 36 -102 0 -5 -16 -9 -35 -9 -52 0 -78 32 -100 120 -18 77 -49 150 -63
150 -5 0 -5 -26 -1 -57 20 -157 22 -202 8 -219 -32 -39 -99 -40 -122 0 -7 12
-12 61 -12 121 0 57 -4 102 -10 105 -17 9 -55 -83 -64 -156 -12 -94 -35 -139
-67 -127 -10 4 -32 71 -48 148 -2 11 -4 -5 -4 -35 -2 -92 37 -170 84 -170 25
0 40 31 50 111 8 56 15 54 33 -9 17 -61 42 -82 96 -82 39 0 48 4 72 35 41 52
47 43 14 -22 -39 -79 -45 -114 -27 -156 33 -80 83 -72 231 34 128 91 152 101
234 97 56 -3 66 0 69 14 3 16 -6 27 -72 87 -31 28 -33 77 -4 95 14 9 24 4 52
-28 34 -36 38 -38 83 -32 27 4 58 6 71 6 12 0 37 0 55 0 17 0 62 1 100 1 64 0
68 2 82 29 21 40 19 120 -5 180 -11 28 -20 62 -20 75 0 27 -51 91 -63 79z"/>
<path d="M400 1044 c-6 -14 -10 -30 -10 -35 0 -19 -31 -21 -51 -3 -25 23 -54
8 -54 -27 0 -18 5 -24 24 -24 13 0 32 -11 42 -24 23 -28 21 -29 47 32 12 26
25 47 30 47 13 0 23 27 16 45 -9 23 -34 18 -44 -11z"/>
<path d="M3096 1027 c-24 -17 -13 -37 20 -37 13 0 24 -4 24 -10 0 -5 -4 -10
-8 -10 -5 0 -17 -7 -28 -15 -19 -14 -19 -14 2 -15 27 0 119 69 107 81 -17 17
-97 21 -117 6z"/>
<path d="M1390 834 c-16 -19 -4 -62 23 -78 14 -8 20 -8 27 4 17 26 11 68 -9
80 -25 13 -26 13 -41 -6z"/>
<path d="M350 742 c-36 -38 -89 -82 -117 -98 -57 -31 -69 -50 -25 -39 43 10
115 61 151 105 22 28 40 40 57 40 22 0 25 4 22 27 -2 14 -7 28 -13 30 -5 1
-39 -28 -75 -65z"/>
<path d="M822 769 c-25 -9 -21 -29 5 -29 14 0 13 -3 -1 -26 -37 -55 -1 -100
58 -71 49 23 46 40 -6 35 -23 -2 -43 2 -45 8 -2 5 13 29 33 52 l36 42 -29 -1
c-15 0 -38 -4 -51 -10z"/>
<path d="M1183 716 c-36 -46 -57 -110 -43 -136 13 -24 38 -23 54 2 8 13 8 23
-2 38 -16 27 -15 51 4 78 23 33 11 50 -13 18z"/>
<path d="M3291 656 c-18 -22 -10 -49 19 -63 21 -10 28 -10 40 3 13 13 13 18 0
42 -18 32 -42 39 -59 18z"/>
<path d="M1496 544 c-34 -54 -40 -111 -13 -128 15 -9 21 -7 33 8 18 25 18 31
-3 51 -15 16 -15 20 5 61 24 49 25 54 15 54 -5 0 -21 -21 -37 -46z"/>
<path d="M2080 558 c-54 -89 -42 -181 16 -117 18 20 18 22 1 34 -22 16 -22 36
4 79 26 45 6 48 -21 4z"/>
<path d="M2297 583 c-4 -3 -7 -25 -7 -48 0 -30 -6 -47 -21 -61 -33 -29 -42
-53 -28 -70 25 -30 93 -4 120 48 11 21 11 21 -24 0 -34 -22 -67 -29 -67 -14 1
4 21 22 46 40 57 42 62 57 34 88 -23 24 -41 30 -53 17z"/>
<path d="M3129 575 c-20 -7 -64 -33 -98 -58 -34 -25 -71 -49 -81 -52 -11 -4
-20 -11 -20 -17 0 -16 51 0 93 30 63 44 120 72 147 72 32 0 55 14 46 29 -9 14
-42 13 -87 -4z"/>
<path d="M1001 550 c-44 -71 -54 -151 -19 -158 9 -2 22 6 28 18 9 17 8 27 -5
47 -16 24 -16 28 5 65 28 49 20 75 -9 28z"/>
<path d="M3353 555 c-56 -17 -121 -56 -157 -94 -17 -17 -26 -31 -22 -31 17 0
236 111 236 119 0 17 -14 19 -57 6z"/>
<path d="M473 545 c-10 -8 -27 -15 -39 -15 -11 0 -29 -6 -40 -14 -23 -18 -12
-44 27 -63 20 -10 26 -9 42 8 10 11 22 17 27 14 20 -12 51 16 48 42 -4 33 -39
47 -65 28z"/>
<path d="M2830 508 c-21 -28 -30 -53 -30 -79 0 -48 15 -57 46 -28 l24 23 -21
22 -20 22 20 41 c27 53 19 52 -19 -1z"/>
</g>
</svg>
