<?xml version="1.0" encoding="UTF-8"?>
<svg xmlns="http://www.w3.org/2000/svg" xmlns:xlink="http://www.w3.org/1999/xlink" width="144px" height="144px" viewBox="0 0 144 144" version="1.1">
<g id="surface1">
<path style=" stroke:none;fill-rule:nonzero;fill:rgb(24.313725%,70.588235%,53.72549%);fill-opacity:1;" d="M 143.949219 62.742188 L 130.34375 15.71875 C 130.246094 15.382812 130.011719 15.101562 129.699219 14.941406 C 129.386719 14.785156 129.023438 14.761719 128.691406 14.882812 L 125.003906 16.238281 L 124.414062 14.28125 C 124.3125 13.945312 124.078125 13.667969 123.761719 13.515625 C 123.449219 13.359375 123.085938 13.339844 122.757812 13.464844 C 113.960938 16.773438 109.664062 17.855469 90.703125 20.046875 C 78.757812 21.429688 73.917969 26.578125 71.984375 30.113281 C 70.058594 26.578125 65.238281 21.429688 53.296875 20.046875 C 34.335938 17.855469 30.039062 16.773438 21.242188 13.464844 C 20.914062 13.339844 20.550781 13.359375 20.238281 13.515625 C 19.921875 13.667969 19.6875 13.945312 19.585938 14.28125 L 19 16.234375 L 15.304688 14.882812 C 14.976562 14.761719 14.609375 14.785156 14.296875 14.941406 C 13.984375 15.101562 13.753906 15.382812 13.65625 15.71875 L 0.0507812 62.742188 C -0.140625 63.398438 0.226562 64.089844 0.875 64.296875 L 42.839844 77.828125 L 25.261719 91.964844 C 24.960938 92.207031 24.789062 92.566406 24.789062 92.949219 L 24.789062 102.613281 C 24.789062 103.121094 25.09375 103.578125 25.5625 103.777344 C 26.03125 103.972656 26.570312 103.871094 26.933594 103.515625 L 34.746094 95.902344 C 35.964844 94.71875 37.917969 94.75 39.101562 95.964844 L 40.613281 97.523438 C 41.1875 98.113281 41.496094 98.894531 41.484375 99.714844 C 41.472656 100.539062 41.140625 101.304688 40.546875 101.882812 L 25.167969 116.90625 C 24.925781 117.144531 24.789062 117.472656 24.789062 117.8125 L 24.789062 129.355469 C 24.789062 129.859375 25.089844 130.316406 25.554688 130.515625 C 25.714844 130.582031 25.882812 130.617188 26.050781 130.617188 C 26.371094 130.617188 26.683594 130.5 26.921875 130.273438 L 71.976562 87.632812 L 117.101562 130.273438 C 117.339844 130.5 117.652344 130.617188 117.96875 130.617188 C 118.136719 130.617188 118.308594 130.582031 118.46875 130.515625 C 118.933594 130.316406 119.234375 129.859375 119.234375 129.355469 L 119.234375 117.8125 C 119.234375 117.472656 119.097656 117.144531 118.851562 116.90625 L 103.472656 101.878906 C 102.882812 101.304688 102.550781 100.539062 102.539062 99.714844 C 102.527344 98.894531 102.835938 98.113281 103.40625 97.523438 L 104.921875 95.964844 C 106.101562 94.75 108.054688 94.71875 109.273438 95.902344 L 117.085938 103.515625 C 117.453125 103.871094 117.992188 103.972656 118.460938 103.777344 C 118.929688 103.578125 119.234375 103.121094 119.234375 102.613281 L 119.234375 92.949219 C 119.234375 92.566406 119.058594 92.207031 118.761719 91.964844 L 101.191406 77.808594 L 143.125 64.296875 C 143.773438 64.089844 144.140625 63.398438 143.949219 62.742188 Z M 143.949219 62.742188 "/>
</g>
</svg>
